<?xml version="1.0" encoding="utf-8"?>
<!-- Generator: Adobe Illustrator 21.1.0, SVG Export Plug-In . SVG Version: 6.00 Build 0)  -->
<svg version="1.1" xmlns="http://www.w3.org/2000/svg" xmlns:xlink="http://www.w3.org/1999/xlink" x="0px" y="0px"
	 viewBox="0 0 203 16" style="enable-background:new 0 0 203 16;" xml:space="preserve">
<style type="text/css">
	.st0{display:none;}
	.st1{fill:#DD6F6F;}
	.st2{fill:#FFFFFF;stroke:#FFFFFF;stroke-miterlimit:10;}
	.st3{fill:#FFFFFF;}
</style>
<g id="Слой_2" class="st0">
	<rect x="-4.7" y="-6.2" class="st1" width="215" height="29.5"/>
</g>
<g id="Слой_1">
	<g id="world">
		<path id="Shape" class="st2" d="M139.4,4L138,5.3l7,6.7l0,0l0,0l7-6.7L150.6,4L145,9.3L139.4,4z"/>
		<path class="st3" d="M8.3,0.2C8.3,0.2,8.3,0.2,8.3,0.2c-0.1,0-0.2,0-0.3,0c0,0,0,0,0,0c0,0,0,0,0,0c0,0,0,0-0.1,0c0,0,0,0-0.1,0
			C3.5,0.1,0,3.7,0,8c0,4.3,3.5,7.9,7.9,7.9c0,0,0,0,0.1,0c0,0,0,0,0.1,0c0,0,0,0,0,0c0,0,0,0,0,0c0.1,0,0.1,0,0.2,0l0,0l0,0
			c4.1-0.2,7.4-3.7,7.4-7.8C15.7,3.8,12.4,0.4,8.3,0.2z M5.5,1.5C4.7,2.5,4.1,3.8,3.7,5.3C2.6,5.2,1.9,5.1,1.7,5
			C2.5,3.4,3.8,2.2,5.5,1.5z M1,8c0-0.7,0.1-1.4,0.3-2.1C1.5,6,2.2,6.2,3.5,6.3C3.5,6.9,3.4,7.4,3.4,8c0,0.7,0.1,1.5,0.2,2.1
			c-1.1,0.1-1.8,0.3-2.2,0.3C1.1,9.7,1,8.8,1,8z M1.9,11.4L1.9,11.4c0.4-0.1,1-0.2,1.9-0.3c0.4,1.4,1,2.5,1.7,3.4
			C4,13.9,2.7,12.8,1.9,11.4z M7.3,14.8C6.5,14.4,5.2,13,4.7,11c0.7-0.1,1.7-0.1,2.6-0.1V14.8z M7.3,9.9L7.3,9.9
			c-0.8,0-2,0.1-2.8,0.1C4.4,9.4,4.4,8.7,4.4,8c0-0.6,0-1.1,0.1-1.6c0.8,0.1,2,0.1,2.8,0.1V9.9z M7.3,5.5L7.3,5.5
			c-0.8,0-1.9-0.1-2.7-0.1c0.5-2.2,1.9-3.8,2.7-4.2V5.5z M14,5L14,5c-0.2,0-0.8,0.2-2,0.4c-0.3-1.5-0.8-2.7-1.4-3.6
			C12.1,2.3,13.3,3.5,14,5z M8.4,1.2c0.8,0.3,2.2,2,2.7,4.2c-0.7,0.1-1.8,0.1-2.7,0.1V1.2z M8.4,6.5c0.8,0,2-0.1,2.8-0.1
			c0.1,0.5,0.1,1.1,0.1,1.6c0,0.7,0,1.4-0.1,2C10.4,10,9.3,9.9,8.4,9.9V6.5z M8.4,14.8L8.4,14.8v-3.9c0.8,0,1.9,0,2.6,0.1
			C10.5,13,9.3,14.5,8.4,14.8z M10.6,14.3c0.6-0.8,1.1-1.9,1.3-3.2c1,0.1,1.6,0.2,1.9,0.3C13.1,12.7,11.9,13.7,10.6,14.3z
			 M12.1,10.1L12.1,10.1c0.2-1.3,0.2-2.6,0.1-3.8c1.5-0.2,2.2-0.4,2.2-0.4c0.3,0.8,0.3,1.2,0.3,2.1c0,0.9-0.2,1.7-0.5,2.5
			C14,10.5,13.3,10.3,12.1,10.1z"/>
	</g>
</g>
</svg>
